<svg id="visual" viewBox="0 0 960 540" width="960" height="540" xmlns="http://www.w3.org/2000/svg" xmlns:xlink="http://www.w3.org/1999/xlink" version="1.1"><rect x="0" y="0" width="960" height="540" fill="#CFDFF5"></rect><path d="M0 413L22.8 419.3C45.7 425.7 91.3 438.3 137 433.8C182.7 429.3 228.3 407.7 274 402.3C319.7 397 365.3 408 411.2 408.8C457 409.7 503 400.3 548.8 397.7C594.7 395 640.3 399 686 410.3C731.7 421.7 777.3 440.3 823 443.3C868.7 446.3 914.3 433.7 937.2 427.3L960 421L960 541L937.2 541C914.3 541 868.7 541 823 541C777.3 541 731.7 541 686 541C640.3 541 594.7 541 548.8 541C503 541 457 541 411.2 541C365.3 541 319.7 541 274 541C228.3 541 182.7 541 137 541C91.3 541 45.7 541 22.8 541L0 541Z" fill="#1D3557" stroke-linecap="round" stroke-linejoin="miter"></path></svg>